<svg width="53" height="42" viewBox="0 0 53 42" fill="none" xmlns="http://www.w3.org/2000/svg">
<path d="M13.8947 19.5133C14.5849 18.9868 15.1315 18.5706 15.6773 18.1553L15.8923 18.2407C15.5989 19.0116 15.2656 19.7705 15.0297 20.5577C14.9044 20.9773 14.8025 21.496 14.9418 21.8823C15.4005 23.154 15.9697 24.3864 16.505 25.6307C16.9628 26.6948 17.4041 27.7784 18.8428 27.9759C18.8106 28.0622 18.7784 28.1485 18.7462 28.2348H12.8642C12.8851 28.1186 12.879 28.01 12.9112 27.9981C14.3177 27.4554 14.3717 27.3468 13.8042 25.8846C13.4047 24.8565 12.9774 23.8386 12.6588 23.0515C10.5272 23.348 8.55931 23.6155 6.59312 23.8984C5.31454 24.0822 4.21873 24.583 3.57726 25.7581C3.01412 26.7905 3.24913 27.3921 4.34929 27.8622C4.45808 27.9083 4.54773 27.9989 4.90285 28.2528H0.25328C0.168854 28.1511 0.0844268 28.0485 0 27.9468C0.167983 27.9032 0.393411 27.9135 0.493505 27.8083C1.24899 27.0178 2.26821 26.3221 2.66945 25.3769C4.43545 21.2243 6.05262 17.0084 7.63061 12.7822C7.81775 12.2814 7.43652 11.5763 7.28856 10.8089C8.02054 10.8089 8.9797 10.7602 9.92754 10.8448C10.1495 10.8644 10.3923 11.3097 10.5194 11.6037C11.469 13.8044 12.3907 16.0161 13.3246 18.2237C13.4857 18.6048 13.6589 18.98 13.8947 19.5124V19.5133ZM4.3223 23.5617C4.3841 23.636 4.44503 23.7104 4.50682 23.7847C6.17186 21.3832 8.90572 21.0781 11.5099 20.3355C10.5029 17.9228 9.55154 15.6444 8.47488 13.0634C7.01265 16.7614 5.66704 20.1611 4.3223 23.5617ZM7.10665 23.0028C9.73867 23.0634 12.1566 22.5601 14.014 20.6782C11.711 21.4533 9.4088 22.2276 7.10665 23.0028Z" fill="white"/>
<path d="M40.5137 14.1531C41.156 13.9189 41.8723 13.6583 42.68 13.3643V28.4545H40.5137V14.1522V14.1531Z" fill="white"/>
<path d="M43.8013 11.4107C41.9466 7.82551 42.7343 3.76515 45.8006 1.4209C47.7955 4.00018 47.7859 6.91874 47.3055 9.92961C51.1169 9.06899 51.6635 9.12711 53.0012 10.6338C51.7749 10.2988 50.9759 10.8466 50.1864 11.4936C49.3953 12.1414 48.4561 12.2286 47.4848 11.9628C46.2558 11.6261 45.7362 10.868 45.9259 9.63391C46.026 8.98524 46.2314 8.35196 46.355 7.70586C46.6353 6.2376 46.5535 4.82746 45.6291 3.53953C43.1285 5.77524 42.6437 10.4073 45.7771 12.7149C45.2845 12.4892 44.2592 11.6098 43.7674 11.3833L43.8022 11.4107H43.8013Z" fill="white"/>
<path d="M35.2903 18.5425C35.0362 19.1706 34.8055 19.7415 34.5853 20.2851C34.4678 20.315 34.3843 20.3654 34.339 20.3432C32.1239 19.239 30.3309 20.6081 30.4406 23.0396C30.5215 24.8274 30.4562 26.6222 30.4562 28.4571H28.1976C28.1976 27.4537 28.1976 26.4624 28.1976 25.4718C28.1976 23.8087 28.2263 22.1456 28.1758 20.4842C28.1619 20.0407 27.9043 19.6039 27.7441 19.1202C28.45 18.8775 29.3683 18.5621 30.4362 18.1955V20.7534C32.2692 18.081 33.3241 17.6032 35.2903 18.5425Z" fill="white"/>
<path d="M36.0067 19.1089C36.6517 18.8952 37.5804 18.5876 38.6205 18.2432V28.4415H36.4628C36.4628 25.8041 36.4854 23.212 36.4428 20.6207C36.435 20.131 36.1677 19.6448 36.0059 19.1089H36.0067Z" fill="white"/>
<path d="M24.1887 27.2915C23.7935 28.1606 23.1216 28.6743 22.1424 28.6384C21.1572 28.6016 20.4513 28.0478 20.1919 27.1385C19.3677 24.249 18.6061 21.3432 17.8105 18.4059C18.1535 18.3289 18.2858 18.2811 18.4207 18.2717C20.1023 18.1563 20.0944 18.1589 20.4861 19.7818C20.9813 21.8346 21.4879 23.8849 21.9945 25.9352C22.0693 26.2377 22.159 26.5368 22.2608 26.8317C22.7447 28.2273 23.1025 28.3025 24.1173 27.2282L24.1878 27.2923L24.1887 27.2915Z" fill="white"/>
<path d="M11.5413 39.3389C10.3375 41.3002 8.98759 41.9634 7.45224 41.2208C6.43128 40.7268 6.131 39.5491 6.66977 38.1518C6.96309 40.3174 8.27562 41.0797 10.1173 40.1465C10.8633 39.7687 11.3176 39.226 11.2514 38.3287C11.1235 36.5998 11.0138 34.8691 10.952 33.1368C10.9372 32.7206 11.1357 32.2976 11.2358 31.8779C11.3585 31.8907 11.4812 31.9036 11.6039 31.9164C11.6266 32.1967 11.6605 32.4762 11.6701 32.7565C11.7223 34.2119 11.751 35.6691 11.8215 37.1237C11.8799 38.3048 12.3159 38.768 13.5197 38.7808C16.2387 38.8098 18.9578 38.797 21.6768 38.7586C22.7039 38.744 22.8884 38.3458 22.5176 37.4168C22.3566 37.0143 22.3679 36.5459 22.4759 36.0853C23.2 36.9185 23.3697 37.8381 22.8736 38.7722C22.4245 39.6175 21.5994 39.7474 20.6968 39.7363C18.5069 39.7089 16.3153 39.7628 14.1263 39.7123C13.2934 39.6935 12.4648 39.4782 11.5404 39.3389H11.5413Z" fill="white"/>
<path d="M38.0696 38.0756C37.7945 38.0371 37.5186 38.0038 37.2453 37.9585C36.5708 37.8465 35.8605 37.732 35.7448 36.9047C35.6212 36.0244 35.9041 35.2407 36.6552 34.7169C37.2375 34.31 37.7258 34.6143 38.1061 35.0997C39.6023 37.0073 38.7981 39.3746 36.4063 39.5566C33.581 39.7711 30.7253 39.6071 27.8774 39.6071C26.9148 42.0282 26.4213 42.3376 24.3672 41.7334C25.0087 41.4924 25.6362 41.3334 26.1845 41.0343C27.4962 40.319 27.6659 39.5865 27.021 38.2935C26.8687 37.9884 26.9574 37.567 27.1054 37.1252C27.5946 38.7584 28.7635 38.8789 30.1465 38.8234C32.3642 38.7336 34.5881 38.7866 36.8084 38.7353C37.2549 38.7251 37.697 38.5225 38.1409 38.408C38.1174 38.2969 38.0939 38.1858 38.0704 38.0747L38.0696 38.0756ZM38.1784 37.1919C38.0086 35.9979 37.3889 35.2057 36.8188 35.4535C36.4803 35.6005 36.0155 36.1911 36.0947 36.4193C36.4237 37.3713 37.3097 37.2132 38.1784 37.1919Z" fill="white"/>
<path d="M24.1174 27.2278C24.5038 25.5527 25.0052 23.8939 25.2428 22.1983C25.4621 20.6318 25.0678 19.161 23.4707 18.2474C23.7257 18.0833 23.8676 17.9833 24.019 17.8961C25.5283 17.0261 26.3769 17.332 26.5249 19.096C26.6345 20.4002 26.4056 21.7932 26.0253 23.0598C25.5866 24.5203 24.8154 25.8852 24.1888 27.2911L24.1183 27.227L24.1174 27.2278Z" fill="white"/>
<path d="M43.8474 0C44.1877 0.508506 44.3957 0.818737 44.6333 1.17426C44.0632 2.20837 43.3286 3.27837 42.8673 4.45177C42.4182 5.59271 42.2485 6.84047 41.9648 8.00704C41.3268 5.20727 42.4278 2.74251 43.8483 0H43.8474Z" fill="white"/>
<path d="M40.8229 39.4652C40.6593 36.8022 40.4966 34.1391 40.3242 31.3359C40.7594 31.7051 41.1067 32 41.3391 32.1966C41.3391 34.0169 41.3643 35.7322 41.3269 37.4448C41.3121 38.1337 41.1615 38.8199 41.0727 39.5071C40.9892 39.4934 40.9065 39.4789 40.8229 39.4652Z" fill="white"/>
<path d="M37.4281 15.082C38.1958 15.1342 38.7259 15.5264 38.725 16.2982C38.725 16.9921 38.2985 17.463 37.53 17.4921C36.7701 17.5211 36.3106 17.1263 36.247 16.4059C36.1774 15.6179 36.6483 15.1991 37.4273 15.082H37.4281Z" fill="white"/>
<path d="M43.7662 11.3841C44.3328 12.1003 44.9003 12.8165 45.4669 13.5335C45.3773 13.6233 45.2876 13.7122 45.198 13.8019C44.3885 12.1704 42.6913 12.155 41.0254 11.685C42.0933 10.8603 42.9559 11.2346 43.8028 11.4132C43.801 11.4115 43.7653 11.385 43.7653 11.385L43.7662 11.3841Z" fill="white"/>
</svg>
